<svg width="194" height="51" viewBox="0 0 194 51" fill="none" xmlns="http://www.w3.org/2000/svg">
<rect width="194" height="51" rx="20" fill="#313131"/>
<path d="M17.7216 34V16.5455H24.4034C25.6648 16.5455 26.7131 16.7443 27.5483 17.142C28.3892 17.5341 29.017 18.071 29.4318 18.7528C29.8523 19.4347 30.0625 20.2074 30.0625 21.071C30.0625 21.7812 29.9261 22.3892 29.6534 22.8949C29.3807 23.3949 29.0142 23.8011 28.554 24.1136C28.0938 24.4261 27.5795 24.6506 27.0114 24.7869V24.9574C27.6307 24.9915 28.2244 25.1818 28.7926 25.5284C29.3665 25.8693 29.8352 26.3523 30.1989 26.9773C30.5625 27.6023 30.7443 28.358 30.7443 29.2443C30.7443 30.1477 30.5256 30.9602 30.0881 31.6818C29.6506 32.3977 28.9915 32.9631 28.1108 33.3778C27.2301 33.7926 26.1222 34 24.7869 34H17.7216ZM20.8835 31.358H24.2841C25.4318 31.358 26.2585 31.1392 26.7642 30.7017C27.2756 30.2585 27.5312 29.6903 27.5312 28.9972C27.5312 28.4801 27.4034 28.0142 27.1477 27.5994C26.892 27.179 26.5284 26.8494 26.0568 26.6108C25.5852 26.3665 25.0227 26.2443 24.3693 26.2443H20.8835V31.358ZM20.8835 23.9688H24.0114C24.5568 23.9688 25.0483 23.8693 25.4858 23.6705C25.9233 23.4659 26.267 23.179 26.517 22.8097C26.7727 22.4347 26.9006 21.9915 26.9006 21.4801C26.9006 20.804 26.6619 20.2472 26.1847 19.8097C25.7131 19.3722 25.0114 19.1534 24.0795 19.1534H20.8835V23.9688ZM37.1257 34.2642C36.2962 34.2642 35.549 34.1165 34.8842 33.821C34.2251 33.5199 33.7024 33.0767 33.3161 32.4915C32.9354 31.9062 32.745 31.1847 32.745 30.3267C32.745 29.5881 32.8814 28.9773 33.1541 28.4943C33.4268 28.0114 33.799 27.625 34.2706 27.3352C34.7422 27.0455 35.2734 26.8267 35.8643 26.679C36.4609 26.5256 37.0774 26.4148 37.7138 26.3466C38.4808 26.267 39.103 26.196 39.5803 26.1335C40.0575 26.0653 40.4041 25.9631 40.62 25.8267C40.8416 25.6847 40.9524 25.4659 40.9524 25.1705V25.1193C40.9524 24.4773 40.7621 23.9801 40.3814 23.6278C40.0007 23.2756 39.4524 23.0994 38.7365 23.0994C37.9808 23.0994 37.3814 23.2642 36.9382 23.5938C36.5007 23.9233 36.2053 24.3125 36.0518 24.7614L33.1712 24.3523C33.3984 23.5568 33.7734 22.892 34.2962 22.358C34.8189 21.8182 35.4581 21.4148 36.2138 21.1477C36.9695 20.875 37.8047 20.7386 38.7195 20.7386C39.3501 20.7386 39.978 20.8125 40.603 20.9602C41.228 21.108 41.799 21.3523 42.3161 21.6932C42.8331 22.0284 43.2479 22.4858 43.5604 23.0653C43.8786 23.6449 44.0376 24.3693 44.0376 25.2386V34H41.0717V32.2017H40.9695C40.782 32.5653 40.5178 32.9062 40.1768 33.2244C39.8416 33.5369 39.4183 33.7898 38.907 33.983C38.4013 34.1705 37.8075 34.2642 37.1257 34.2642ZM37.9268 31.9972C38.5462 31.9972 39.0831 31.875 39.5376 31.6307C39.9922 31.3807 40.3416 31.0511 40.5859 30.642C40.8359 30.233 40.9609 29.7869 40.9609 29.304V27.7614C40.8643 27.8409 40.6996 27.9148 40.4666 27.983C40.2393 28.0511 39.9837 28.1108 39.6996 28.1619C39.4155 28.2131 39.1342 28.2585 38.8558 28.2983C38.5774 28.3381 38.3359 28.3722 38.1314 28.4006C37.6712 28.4631 37.2592 28.5653 36.8956 28.7074C36.532 28.8494 36.245 29.0483 36.0348 29.304C35.8246 29.554 35.7195 29.8778 35.7195 30.2756C35.7195 30.8438 35.9268 31.2727 36.3416 31.5625C36.7564 31.8523 37.2848 31.9972 37.9268 31.9972ZM47.1399 34V20.9091H50.2251V34H47.1399ZM48.6911 19.0511C48.2024 19.0511 47.782 18.8892 47.4297 18.5653C47.0774 18.2358 46.9013 17.8409 46.9013 17.3807C46.9013 16.9148 47.0774 16.5199 47.4297 16.196C47.782 15.8665 48.2024 15.7017 48.6911 15.7017C49.1854 15.7017 49.6058 15.8665 49.9524 16.196C50.3047 16.5199 50.4808 16.9148 50.4808 17.3807C50.4808 17.8409 50.3047 18.2358 49.9524 18.5653C49.6058 18.8892 49.1854 19.0511 48.6911 19.0511ZM55.9205 20.9091L58.5625 25.7415L61.2472 20.9091H64.5114L60.5653 27.4545L64.5795 34H61.3324L58.5625 29.2869L55.8182 34H52.5455L56.5341 27.4545L52.6477 20.9091H55.9205ZM72.201 34.2557C70.8885 34.2557 69.755 33.983 68.8004 33.4375C67.8516 32.8864 67.1214 32.108 66.6101 31.1023C66.0987 30.0909 65.843 28.9006 65.843 27.5312C65.843 26.1847 66.0987 25.0028 66.6101 23.9858C67.1271 22.9631 67.8487 22.1676 68.7749 21.5994C69.701 21.0256 70.7891 20.7386 72.0391 20.7386C72.8459 20.7386 73.6072 20.8693 74.3232 21.1307C75.0447 21.3864 75.6811 21.7841 76.2322 22.3239C76.7891 22.8636 77.2266 23.5511 77.5447 24.3864C77.8629 25.2159 78.022 26.2045 78.022 27.3523V28.2983H67.2919V26.2188H75.0646C75.0589 25.6278 74.9311 25.1023 74.6811 24.642C74.4311 24.1761 74.0817 23.8097 73.6328 23.5426C73.1896 23.2756 72.6726 23.142 72.0817 23.142C71.451 23.142 70.897 23.2955 70.4197 23.6023C69.9425 23.9034 69.5703 24.3011 69.3033 24.7955C69.0419 25.2841 68.9084 25.821 68.9027 26.4062V28.2216C68.9027 28.983 69.0419 29.6364 69.3203 30.1818C69.5987 30.7216 69.9879 31.1364 70.4879 31.4261C70.9879 31.7102 71.5732 31.8523 72.2436 31.8523C72.6925 31.8523 73.0987 31.7898 73.4624 31.6648C73.826 31.5341 74.1413 31.3438 74.4084 31.0938C74.6754 30.8438 74.8771 30.5341 75.0135 30.1648L77.8942 30.4886C77.7124 31.25 77.3658 31.9148 76.8544 32.483C76.3487 33.0455 75.701 33.483 74.9112 33.7955C74.1214 34.1023 73.218 34.2557 72.201 34.2557ZM90.3523 34.2642C89.5227 34.2642 88.7756 34.1165 88.1108 33.821C87.4517 33.5199 86.929 33.0767 86.5426 32.4915C86.1619 31.9062 85.9716 31.1847 85.9716 30.3267C85.9716 29.5881 86.108 28.9773 86.3807 28.4943C86.6534 28.0114 87.0256 27.625 87.4972 27.3352C87.9688 27.0455 88.5 26.8267 89.0909 26.679C89.6875 26.5256 90.304 26.4148 90.9403 26.3466C91.7074 26.267 92.3295 26.196 92.8068 26.1335C93.2841 26.0653 93.6307 25.9631 93.8466 25.8267C94.0682 25.6847 94.179 25.4659 94.179 25.1705V25.1193C94.179 24.4773 93.9886 23.9801 93.608 23.6278C93.2273 23.2756 92.679 23.0994 91.9631 23.0994C91.2074 23.0994 90.608 23.2642 90.1648 23.5938C89.7273 23.9233 89.4318 24.3125 89.2784 24.7614L86.3977 24.3523C86.625 23.5568 87 22.892 87.5227 22.358C88.0455 21.8182 88.6847 21.4148 89.4403 21.1477C90.196 20.875 91.0313 20.7386 91.946 20.7386C92.5767 20.7386 93.2045 20.8125 93.8295 20.9602C94.4545 21.108 95.0256 21.3523 95.5426 21.6932C96.0597 22.0284 96.4744 22.4858 96.7869 23.0653C97.1051 23.6449 97.2642 24.3693 97.2642 25.2386V34H94.2983V32.2017H94.196C94.0085 32.5653 93.7443 32.9062 93.4034 33.2244C93.0682 33.5369 92.6449 33.7898 92.1335 33.983C91.6278 34.1705 91.0341 34.2642 90.3523 34.2642ZM91.1534 31.9972C91.7727 31.9972 92.3097 31.875 92.7642 31.6307C93.2188 31.3807 93.5682 31.0511 93.8125 30.642C94.0625 30.233 94.1875 29.7869 94.1875 29.304V27.7614C94.0909 27.8409 93.9261 27.9148 93.6932 27.983C93.4659 28.0511 93.2102 28.1108 92.9261 28.1619C92.642 28.2131 92.3608 28.2585 92.0824 28.2983C91.804 28.3381 91.5625 28.3722 91.358 28.4006C90.8977 28.4631 90.4858 28.5653 90.1222 28.7074C89.7585 28.8494 89.4716 29.0483 89.2614 29.304C89.0511 29.554 88.946 29.8778 88.946 30.2756C88.946 30.8438 89.1534 31.2727 89.5682 31.5625C89.983 31.8523 90.5114 31.9972 91.1534 31.9972ZM109.102 38.9091V31.9375H108.974C108.815 32.2557 108.585 32.5937 108.284 32.9517C107.983 33.304 107.585 33.6051 107.091 33.8551C106.597 34.1051 105.974 34.2301 105.224 34.2301C104.196 34.2301 103.276 33.9659 102.463 33.4375C101.651 32.9091 101.009 32.142 100.537 31.1364C100.065 30.1307 99.8295 28.9091 99.8295 27.4716C99.8295 26.017 100.068 24.7898 100.545 23.7898C101.028 22.7841 101.679 22.0256 102.497 21.5142C103.315 20.9972 104.227 20.7386 105.233 20.7386C106 20.7386 106.631 20.8693 107.125 21.1307C107.619 21.3864 108.011 21.696 108.301 22.0597C108.591 22.4176 108.815 22.7557 108.974 23.0739H109.162V20.9091H112.196V38.9091H109.102ZM106.085 31.6989C106.739 31.6989 107.295 31.5227 107.756 31.1705C108.216 30.8125 108.565 30.3153 108.804 29.679C109.043 29.0426 109.162 28.3011 109.162 27.4545C109.162 26.608 109.043 25.8722 108.804 25.2472C108.571 24.6222 108.224 24.1364 107.764 23.7898C107.31 23.4432 106.75 23.2699 106.085 23.2699C105.398 23.2699 104.824 23.4489 104.364 23.8068C103.903 24.1648 103.557 24.6591 103.324 25.2898C103.091 25.9205 102.974 26.642 102.974 27.4545C102.974 28.2727 103.091 29.0028 103.324 29.6449C103.563 30.2812 103.912 30.7841 104.372 31.1534C104.838 31.517 105.409 31.6989 106.085 31.6989ZM123.71 28.4943V20.9091H126.795V34H123.804V31.6733H123.668C123.372 32.4062 122.886 33.0057 122.21 33.4716C121.54 33.9375 120.713 34.1705 119.73 34.1705C118.872 34.1705 118.114 33.9801 117.455 33.5994C116.801 33.2131 116.29 32.6534 115.92 31.9205C115.551 31.1818 115.366 30.2898 115.366 29.2443V20.9091H118.452V28.767C118.452 29.5966 118.679 30.2557 119.134 30.7443C119.588 31.233 120.185 31.4773 120.923 31.4773C121.378 31.4773 121.818 31.3665 122.244 31.1449C122.67 30.9233 123.02 30.5938 123.293 30.1562C123.571 29.7131 123.71 29.1591 123.71 28.4943ZM129.968 34V20.9091H133.053V34H129.968ZM131.519 19.0511C131.031 19.0511 130.61 18.8892 130.258 18.5653C129.906 18.2358 129.729 17.8409 129.729 17.3807C129.729 16.9148 129.906 16.5199 130.258 16.196C130.61 15.8665 131.031 15.7017 131.519 15.7017C132.013 15.7017 132.434 15.8665 132.781 16.196C133.133 16.5199 133.309 16.9148 133.309 17.3807C133.309 17.8409 133.133 18.2358 132.781 18.5653C132.434 18.8892 132.013 19.0511 131.519 19.0511Z" fill="white"/>
<path d="M147 9.37921V43.389C147 43.4628 147.022 43.5349 147.063 43.5962C147.104 43.6576 147.163 43.7054 147.231 43.7338C147.299 43.7622 147.374 43.7698 147.446 43.7557C147.519 43.7417 147.585 43.7065 147.638 43.6547L165.346 26.385L147.638 9.11354C147.585 9.06174 147.519 9.0266 147.446 9.01253C147.374 8.99846 147.299 9.0061 147.231 9.03447C147.163 9.06284 147.104 9.11069 147.063 9.17202C147.022 9.23335 147 9.30543 147 9.37921ZM172.771 19.2888L150.567 7.05564L150.553 7.04785C150.171 6.84016 149.807 7.35766 150.121 7.65882L167.526 24.302L172.771 19.2888ZM150.122 45.1112C149.807 45.4123 150.171 45.9298 150.555 45.7221L150.569 45.7143L172.771 33.4812L167.526 28.4662L150.122 45.1112ZM181.735 24.2215L175.535 20.8067L169.704 26.385L175.535 31.9607L181.735 28.5485C183.422 27.6164 183.422 25.1535 181.735 24.2215Z" fill="#FAFF00"/>
</svg>
